<svg xmlns="http://www.w3.org/2000/svg" version="1.1" xmlns:xlink="http://www.w3.org/1999/xlink" width="1000" height="1000"><g clip-path="url(#SvgjsClipPath1001)"><rect width="1000" height="1000" fill="#ffffff"></rect><g transform="matrix(3.5,0,0,3.5,150,150)"><svg xmlns="http://www.w3.org/2000/svg" version="1.1" xmlns:xlink="http://www.w3.org/1999/xlink" width="200" height="200"><svg xmlns="http://www.w3.org/2000/svg" version="1.1" xmlns:xlink="http://www.w3.org/1999/xlink" viewBox="0 0 200 200"><rect width="200" height="200" fill="url('#gradient')"></rect><defs><linearGradient id="gradient" gradientTransform="rotate(0 0.5 0.5)"><stop offset="0%" stop-color="#f8b137"></stop><stop offset="100%" stop-color="#e26122"></stop></linearGradient><clipPath id="SvgjsClipPath1001"><rect width="1000" height="1000" x="0" y="0" rx="350" ry="350"></rect></clipPath></defs><g><g fill="#ffffff" transform="matrix(1.920400083350698,0,0,1.920400083350698,10.057126563553965,114.22278893393857)" stroke="#565656" stroke-width="0.35"><path d="M9.98 0L9.15-2.66L4.45-2.66L3.63 0L-0.03 0L5.19-14.22L8.41-14.22L13.66 0L9.98 0ZM6.80-10.23L5.27-5.30L8.33-5.30L6.80-10.23ZM26.13-7.60L26.13-1.76Q25.34-0.88 23.82-0.34Q22.29 0.20 20.48 0.20L20.48 0.20Q17.69 0.20 16.02-1.51Q14.35-3.22 14.23-6.27L14.23-6.27L14.22-7.50Q14.22-9.60 14.96-11.17Q15.70-12.73 17.08-13.58Q18.47-14.42 20.28-14.42L20.28-14.42Q22.94-14.42 24.41-13.21Q25.88-11.99 26.12-9.58L26.12-9.58L22.82-9.58Q22.65-10.77 22.06-11.28Q21.47-11.79 20.40-11.79L20.40-11.79Q19.11-11.79 18.41-10.69Q17.71-9.60 17.70-7.57L17.70-7.57L17.70-6.71Q17.70-4.58 18.42-3.51Q19.15-2.44 20.71-2.44L20.71-2.44Q22.05-2.44 22.71-3.04L22.71-3.04L22.71-5.24L20.32-5.24L20.32-7.60L26.13-7.60ZM37.78 0L33.11 0L33.11-14.22L37.69-14.22Q39.57-14.22 41.07-13.36Q42.58-12.51 43.42-10.95Q44.27-9.39 44.28-7.46L44.28-7.46L44.28-6.81Q44.28-4.85 43.45-3.31Q42.63-1.76 41.13-0.88Q39.63-0.01 37.78 0L37.78 0ZM37.69-11.57L36.53-11.57L36.53-2.64L37.72-2.64Q39.20-2.64 39.99-3.69Q40.78-4.74 40.78-6.81L40.78-6.81L40.78-7.42Q40.78-9.48 39.99-10.53Q39.20-11.57 37.69-11.57L37.69-11.57ZM45.48-4.82L45.47-5.38Q45.47-6.96 46.08-8.20Q46.70-9.43 47.85-10.10Q49.00-10.76 50.56-10.76L50.56-10.76Q52.93-10.76 54.30-9.29Q55.66-7.82 55.66-5.29L55.66-5.29L55.66-5.18Q55.66-2.71 54.29-1.25Q52.92 0.20 50.58 0.20L50.58 0.20Q48.32 0.20 46.95-1.16Q45.59-2.51 45.48-4.82L45.48-4.82ZM48.77-5.77L48.76-5.18Q48.76-3.71 49.22-3.03Q49.68-2.34 50.58-2.34L50.58-2.34Q52.33-2.34 52.37-5.05L52.37-5.05L52.37-5.38Q52.37-8.22 50.56-8.22L50.56-8.22Q48.91-8.22 48.77-5.77L48.77-5.77ZM46.56-13.33L46.56-13.33Q46.56-13.87 46.99-14.25Q47.41-14.63 48.04-14.63Q48.66-14.63 49.09-14.25Q49.51-13.87 49.51-13.33Q49.51-12.79 49.09-12.41Q48.66-12.03 48.04-12.03Q47.41-12.03 46.99-12.41Q46.56-12.79 46.56-13.33ZM51.63-13.33L51.63-13.33Q51.63-13.87 52.06-14.25Q52.48-14.63 53.11-14.63Q53.73-14.63 54.16-14.25Q54.58-13.87 54.58-13.33Q54.58-12.79 54.16-12.41Q53.73-12.03 53.11-12.03Q52.48-12.03 52.06-12.41Q51.63-12.79 51.63-13.33ZM60.59-15L60.59 0L57.29 0L57.29-15L60.59-15ZM69.16 0L66.86-3.94L65.93-3.01L65.93 0L62.64 0L62.64-15.01L65.93-15.01L65.93-7.04L66.26-7.48L68.74-10.57L72.69-10.57L68.98-6.22L72.93 0L69.16 0ZM78.47 0.20L78.47 0.20Q76.04 0.20 74.53-1.25Q73.03-2.71 73.03-5.03L73.03-5.03L73.03-5.30Q73.03-6.92 73.63-8.16Q74.23-9.40 75.38-10.08Q76.53-10.76 78.12-10.76L78.12-10.76Q80.34-10.76 81.63-9.38Q82.92-8.00 82.92-5.53L82.92-5.53L82.92-4.25L76.38-4.25Q76.55-3.36 77.15-2.85Q77.74-2.34 78.69-2.34L78.69-2.34Q80.25-2.34 81.13-3.44L81.13-3.44L82.64-1.66Q82.02-0.81 80.89-0.31Q79.77 0.20 78.47 0.20ZM78.10-8.22L78.10-8.22Q76.65-8.22 76.38-6.31L76.38-6.31L79.70-6.31L79.70-6.56Q79.72-7.35 79.30-7.79Q78.88-8.22 78.10-8.22ZM84.18-10.57L87.27-10.57L87.37-9.33Q88.47-10.76 90.39-10.76L90.39-10.76Q92.04-10.76 92.86-9.78Q93.67-8.79 93.70-6.81L93.70-6.81L93.70 0L90.40 0L90.40-6.67Q90.40-7.47 90.08-7.85Q89.76-8.22 88.91-8.22L88.91-8.22Q87.94-8.22 87.47-7.46L87.47-7.46L87.47 0L84.18 0L84.18-10.57Z"></path></g></g></svg></svg></g></g></svg>